# Blender v2.83.0 OBJ File: ''
# www.blender.org
mtllib WheelMain.mtl
o WheelLeftFront_Cube.001
v 0.028694 -0.011103 -0.028020
v 0.028694 -0.010001 -0.028020
v 0.040580 -0.010001 -0.000000
v 0.040580 -0.011103 -0.000000
v -0.028694 -0.011103 0.028020
v 0.000000 -0.011103 0.039626
v 0.000000 -0.010001 0.039626
v -0.028694 -0.010001 0.028020
v -0.000000 0.011103 -0.039626
v -0.000000 0.010001 -0.039626
v -0.028694 0.010001 -0.028020
v -0.028694 0.011103 -0.028020
v 0.059037 0.011103 -0.000000
v 0.041745 0.011103 -0.040764
v 0.041745 0.010001 -0.040764
v 0.059037 0.010001 -0.000000
v 0.028694 -0.011103 0.028020
v 0.028694 -0.010001 0.028020
v -0.059037 -0.010001 0.000000
v -0.041745 -0.010001 0.040764
v -0.041745 -0.011103 0.040764
v -0.059037 -0.011103 0.000000
v 0.000000 0.010001 0.057649
v 0.041745 0.010001 0.040764
v 0.028694 0.010001 0.028020
v 0.000000 0.010001 0.039626
v 0.041745 -0.010001 0.040764
v 0.059037 -0.010001 -0.000000
v -0.041745 -0.010001 -0.040764
v -0.028694 -0.010001 -0.028020
v -0.040580 -0.010001 0.000000
v -0.000000 0.010001 -0.057649
v 0.028694 0.010001 -0.028020
v 0.040580 0.010001 -0.000000
v -0.041745 0.010001 -0.040764
v -0.059037 0.010001 0.000000
v -0.040580 0.010001 0.000000
v 0.000000 -0.010001 0.057649
v -0.000000 -0.010001 -0.057649
v -0.000000 -0.010001 -0.039626
v -0.041745 0.010001 0.040764
v -0.028694 0.010001 0.028020
v 0.041745 0.011103 0.040764
v 0.000000 0.011103 0.057649
v 0.041745 -0.010001 -0.040764
v 0.000000 0.011103 0.061373
v 0.000000 -0.011103 0.061373
v 0.044442 -0.011103 0.043397
v 0.044442 0.011103 0.043397
v 0.044442 -0.011103 -0.043397
v 0.062851 -0.011103 -0.000000
v 0.059037 -0.011103 -0.000000
v 0.041745 -0.011103 -0.040764
v -0.000000 -0.011103 -0.061373
v -0.000000 -0.011103 -0.057649
v -0.041745 -0.011103 -0.040764
v -0.044442 -0.011103 -0.043397
v 0.040580 0.011103 -0.000000
v 0.028694 0.011103 -0.028020
v -0.041745 0.011103 -0.040764
v -0.000000 0.011103 -0.057649
v -0.000000 0.011103 -0.061373
v -0.044442 0.011103 -0.043397
v 0.028694 0.011103 0.028020
v -0.044442 0.011103 0.043397
v -0.044442 -0.011103 0.043397
v 0.000000 -0.011103 0.057649
v -0.062850 -0.011103 0.000000
v 0.044442 0.011103 -0.043397
v -0.041745 0.011103 0.040764
v -0.059037 0.011103 0.000000
v -0.062850 0.011103 0.000000
v 0.041745 -0.011103 0.040764
v -0.028694 0.011103 0.028020
v -0.040580 0.011103 0.000000
v 0.062851 0.011103 -0.000000
v 0.000000 0.012414 0.000000
v 0.000000 0.011103 0.039626
v -0.040580 -0.011103 0.000000
v -0.000000 -0.012414 0.000000
v -0.000000 -0.011103 -0.039626
v -0.028694 -0.011103 -0.028020
vt 0.225070 0.703832
vt 0.223321 0.703832
vt 0.223321 0.738881
vt 0.225070 0.738881
vt 0.204233 0.700538
vt 0.204233 0.747840
vt 0.205943 0.747840
vt 0.205943 0.700538
vt 0.158460 0.786908
vt 0.156643 0.786908
vt 0.156643 0.752154
vt 0.158460 0.752154
vt 0.279704 0.790504
vt 0.331947 0.790504
vt 0.331947 0.788687
vt 0.279704 0.788687
vt 0.204233 0.786922
vt 0.205943 0.786922
vt 0.014677 0.803145
vt 0.014677 0.752154
vt 0.012929 0.752154
vt 0.012929 0.803145
vt 0.570824 0.953855
vt 0.586612 0.937898
vt 0.590102 0.946484
vt 0.579250 0.957452
vt 0.608938 0.882435
vt 0.605448 0.891021
vt 0.590102 0.891112
vt 0.586612 0.882567
vt 0.586612 0.937363
vt 0.590102 0.928777
vt 0.605448 0.928687
vt 0.608938 0.937232
vt 0.624726 0.976869
vt 0.616300 0.973271
vt 0.616300 0.957670
vt 0.624726 0.954171
vt 0.608939 0.938029
vt 0.605448 0.946574
vt 0.608938 0.992825
vt 0.586612 0.992694
vt 0.590101 0.984149
vt 0.605448 0.984239
vt 0.616300 0.917591
vt 0.616300 0.901990
vt 0.624726 0.898392
vt 0.624726 0.921090
vt 0.570824 0.921406
vt 0.579250 0.917809
vt 0.570824 0.976552
vt 0.579250 0.973054
vt 0.207010 0.790503
vt 0.207010 0.788687
vt 0.156449 0.788687
vt 0.156449 0.790503
vt 0.570824 0.898709
vt 0.579250 0.902207
vt 0.079670 0.924608
vt 0.079670 0.890141
vt 0.019140 0.890141
vt 0.019140 0.924608
vt 0.075787 0.680506
vt 0.073235 0.691513
vt 0.074351 0.691180
vt 0.076748 0.680840
vt 0.087613 0.672722
vt 0.087857 0.673528
vt 0.101171 0.673528
vt 0.101788 0.672722
vt 0.192333 0.751138
vt 0.190585 0.751138
vt 0.190585 0.786188
vt 0.192333 0.786188
vt 0.032959 0.671553
vt 0.021129 0.671553
vt 0.020758 0.672461
vt 0.033353 0.672461
vt 0.190585 0.703086
vt 0.192333 0.703086
vt 0.152932 0.924608
vt 0.152932 0.890141
vt 0.095628 0.699297
vt 0.107455 0.691513
vt 0.106495 0.691179
vt 0.095385 0.698491
vt 0.110006 0.680506
vt 0.108891 0.680840
vt 0.340228 0.984509
vt 0.366991 0.992471
vt 0.366991 0.906313
vt 0.340228 0.898352
vt 0.041985 0.651313
vt 0.041067 0.651688
vt 0.041218 0.663325
vt 0.042145 0.663701
vt 0.082071 0.698491
vt 0.081454 0.699297
vt 0.156643 0.702188
vt 0.156643 0.666278
vt 0.158460 0.666278
vt 0.158460 0.702188
vt 0.262459 0.726775
vt 0.260660 0.726775
vt 0.260660 0.786548
vt 0.262459 0.786548
vt 0.195987 0.866120
vt 0.232600 0.866120
vt 0.232599 0.810503
vt 0.195987 0.810503
vt 0.020371 0.642553
vt 0.011579 0.651313
vt 0.012506 0.651688
vt 0.020765 0.643460
vt 0.032966 0.642553
vt 0.032596 0.643460
vt 0.011739 0.663701
vt 0.012657 0.663325
vt 0.015176 0.994383
vt 0.016924 0.994383
vt 0.016924 0.943392
vt 0.015176 0.943392
vt 0.021386 0.647518
vt 0.015707 0.653175
vt 0.025587 0.657177
vt 0.021636 0.666834
vt 0.029770 0.666834
vt 0.015811 0.661176
vt 0.035449 0.661176
vt 0.035345 0.653175
vt 0.029520 0.647518
vt 0.081022 0.683515
vt 0.079375 0.690625
vt 0.091171 0.686811
vt 0.097815 0.678488
vt 0.103124 0.683515
vt 0.101476 0.690625
vt 0.093837 0.695652
vt 0.084683 0.695652
vt 0.088661 0.678488
vt 0.016924 0.873484
vt 0.015176 0.873484
vt 0.156945 0.797780
vt 0.207506 0.797780
vt 0.207506 0.795964
vt 0.156945 0.795964
vt 0.289428 0.730920
vt 0.288101 0.730525
vt 0.288101 0.786153
vt 0.289428 0.786548
vt 0.078717 0.853619
vt 0.078717 0.818388
vt 0.024431 0.818388
vt 0.024431 0.853619
vt 0.237925 0.786153
vt 0.239253 0.786548
vt 0.239253 0.705619
vt 0.237925 0.705224
vt 0.195987 0.997337
vt 0.232599 0.997337
vt 0.232600 0.943510
vt 0.195987 0.943510
vt 0.251643 0.720788
vt 0.250008 0.720788
vt 0.250008 0.786548
vt 0.251643 0.786548
vt 0.282825 0.786153
vt 0.284153 0.786548
vt 0.284153 0.730920
vt 0.282825 0.730525
vt 0.210225 0.700539
vt 0.208514 0.700539
vt 0.208514 0.747841
vt 0.210225 0.747841
vt 0.280200 0.797781
vt 0.280200 0.795964
vt 0.153142 0.853620
vt 0.153142 0.818388
vt 0.156212 0.701030
vt 0.154396 0.701030
vt 0.154396 0.666276
vt 0.156212 0.666276
vt 0.225070 0.786934
vt 0.223321 0.786934
vt 0.156212 0.750998
vt 0.154396 0.750998
vt 0.332444 0.797780
vt 0.332444 0.795964
vt 0.232650 0.786153
vt 0.233978 0.786548
vt 0.233978 0.705618
vt 0.232650 0.705223
vt 0.241748 0.720788
vt 0.241748 0.786548
vt 0.243383 0.786548
vt 0.243383 0.720788
vt 0.265118 0.786548
vt 0.266916 0.786548
vt 0.266916 0.726775
vt 0.265118 0.726775
vt 0.014677 0.873053
vt 0.012929 0.873053
vt 0.156212 0.786908
vt 0.154395 0.786908
vt 0.208515 0.786922
vt 0.210225 0.786922
vn 0.9206 0.0000 -0.3905
vn -0.3750 0.0000 0.9270
vn -0.3750 0.0000 -0.9270
vn -0.9206 0.0000 0.3905
vn 0.3750 -0.0000 0.9270
vn 0.0000 1.0000 -0.0000
vn -0.0000 -1.0000 -0.0000
vn 0.9206 0.0000 0.3905
vn 0.3750 -0.0000 -0.9270
vn -0.9206 0.0000 -0.3905
vn -0.0323 0.9994 -0.0137
vn 0.0134 0.9994 0.0331
vn -0.0134 0.9994 0.0331
vn 0.0323 0.9994 -0.0137
vn -0.0134 0.9994 -0.0331
vn -0.0323 0.9994 0.0137
vn 0.0323 0.9994 0.0137
vn 0.0134 0.9994 -0.0331
vn -0.0323 -0.9994 0.0137
vn 0.0323 -0.9994 0.0137
vn 0.0134 -0.9994 -0.0331
vn -0.0323 -0.9994 -0.0137
vn 0.0134 -0.9994 0.0331
vn -0.0134 -0.9994 0.0331
vn 0.0323 -0.9994 -0.0137
vn -0.0134 -0.9994 -0.0331
usemtl MIR.005
s 1
f 1/1/1 2/2/1 3/3/1 4/4/1
f 5/5/2 6/6/2 7/7/2 8/8/2
f 9/9/3 10/10/3 11/11/3 12/12/3
f 13/13/4 14/14/4 15/15/4 16/16/4
f 17/17/5 18/18/5 7/7/5 6/6/5
f 19/19/1 20/20/1 21/21/1 22/22/1
f 23/23/6 24/24/6 25/25/6 26/26/6
f 27/27/7 18/28/7 3/29/7 28/30/7
f 29/31/7 30/32/7 31/33/7 19/34/7
f 32/35/6 10/36/6 33/37/6 15/38/6
f 24/24/6 16/39/6 34/40/6 25/25/6
f 35/41/6 36/42/6 37/43/6 11/44/6
f 8/45/7 7/46/7 38/47/7 20/48/7
f 39/49/7 40/50/7 30/32/7 29/31/7
f 41/51/6 42/52/6 37/43/6 36/42/6
f 38/47/7 7/46/7 18/28/7 27/27/7
f 43/53/3 24/54/3 23/55/3 44/56/3
f 45/57/7 28/30/7 3/29/7 2/58/7
f 2/58/7 40/50/7 39/49/7 45/57/7
f 20/48/7 19/34/7 31/33/7 8/45/7
f 23/23/6 26/26/6 42/52/6 41/51/6
f 46/59/5 47/60/5 48/61/5 49/62/5
f 50/63/7 51/64/7 52/65/7 53/66/7
f 54/67/7 55/68/7 56/69/7 57/70/7
f 15/38/6 33/37/6 34/40/6 16/39/6
f 58/71/1 34/72/1 33/73/1 59/74/1
f 32/35/6 35/41/6 11/44/6 10/36/6
f 60/75/6 61/76/6 62/77/6 63/78/6
f 25/79/8 34/72/8 58/71/8 64/80/8
f 65/81/2 66/82/2 47/60/2 46/59/2
f 47/83/7 66/84/7 21/85/7 67/86/7
f 66/84/7 68/87/7 22/88/7 21/85/7
f 69/89/9 50/90/9 54/91/9 62/92/9
f 57/70/7 56/69/7 22/88/7 68/87/7
f 65/93/6 70/94/6 71/95/6 72/96/6
f 47/83/7 67/86/7 73/97/7 48/98/7
f 37/99/4 42/100/4 74/101/4 75/102/4
f 55/103/5 39/104/5 29/105/5 56/106/5
f 72/107/4 68/108/4 66/109/4 65/110/4
f 63/78/6 72/96/6 71/95/6 60/75/6
f 49/111/6 76/112/6 13/113/6 43/114/6
f 54/67/7 50/63/7 53/66/7 55/68/7
f 46/115/6 44/116/6 70/94/6 65/93/6
f 69/117/6 14/118/6 13/113/6 76/112/6
f 70/119/1 41/120/1 36/121/1 71/122/1
f 13/13/10 16/16/10 24/54/10 43/53/10
f 12/123/11 75/124/11 77/125/11
f 78/126/12 64/127/12 77/125/12
f 74/128/13 78/126/13 77/125/13
f 58/129/14 59/130/14 77/125/14
f 9/131/15 12/123/15 77/125/15
f 75/124/16 74/128/16 77/125/16
f 64/127/17 58/129/17 77/125/17
f 59/130/18 9/131/18 77/125/18
f 5/132/19 79/133/19 80/134/19
f 17/135/20 80/134/20 4/136/20
f 1/137/21 80/134/21 81/138/21
f 82/139/22 80/134/22 79/133/22
f 17/135/23 6/140/23 80/134/23
f 5/132/24 80/134/24 6/140/24
f 1/137/25 4/136/25 80/134/25
f 82/139/26 81/138/26 80/134/26
f 71/122/8 36/121/8 35/141/8 60/142/8
f 11/11/10 37/99/10 75/102/10 12/12/10
f 43/114/6 44/116/6 46/115/6 49/111/6
f 62/77/6 61/76/6 14/118/6 69/117/6
f 38/143/3 27/144/3 73/145/3 67/146/3
f 59/147/9 33/148/9 10/149/9 9/150/9
f 76/151/1 51/152/1 50/153/1 69/154/1
f 44/155/9 23/156/9 41/157/9 70/158/9
f 62/159/3 54/160/3 57/161/3 63/162/3
f 53/163/2 45/164/2 39/165/2 55/166/2
f 81/167/9 40/168/9 2/169/9 1/170/9
f 48/98/7 73/97/7 52/65/7 51/64/7
f 74/171/2 42/172/2 26/173/2 78/174/2
f 63/162/10 57/161/10 68/108/10 72/107/10
f 73/145/10 27/144/10 28/175/10 52/176/10
f 76/151/8 49/177/8 48/178/8 51/152/8
f 82/179/3 30/180/3 40/181/3 81/182/3
f 17/183/8 4/4/8 3/3/8 18/184/8
f 79/185/10 31/186/10 30/180/10 82/179/10
f 52/176/4 28/175/4 45/187/4 53/188/4
f 21/189/9 20/190/9 38/191/9 67/192/9
f 14/193/2 61/194/2 32/195/2 15/196/2
f 60/197/5 35/198/5 32/199/5 61/200/5
f 29/201/8 19/19/8 22/22/8 56/202/8
f 5/203/4 8/204/4 31/186/4 79/185/4
f 26/173/5 25/205/5 64/206/5 78/174/5
